<svg xmlns="http://www.w3.org/2000/svg" width="24" height="24"><path fill="#C4C4C4" d="M22.303 17.252c-.708-.708-1.894-1.326-3.762-2.26-.942-.472-2.51-1.255-2.89-1.614 1.591-1.957 2.515-4.166 2.515-6.1 0-1.313 0-2.946-.734-4.403C16.769 1.563 15.289 0 12 0 8.71 0 7.23 1.563 6.57 2.875c-.736 1.457-.736 3.09-.736 4.402 0 1.935.923 4.144 2.515 6.1-.38.36-1.948 1.144-2.89 1.614-1.869.935-3.054 1.553-3.763 2.261C.127 18.822.008 21.457 0 21.97A2.001 2.001 0 0 0 2 24h20a2.001 2.001 0 0 0 2-2.031c-.008-.512-.128-3.146-1.697-4.717zm.054 5.099a.5.5 0 0 1-.357.15H2a.5.5 0 0 1-.5-.508c.004-.252.073-2.495 1.257-3.68.546-.546 1.69-1.138 3.373-1.98 1.795-.897 2.79-1.432 3.25-1.865l1.012-.958-.88-1.08c-1.384-1.7-2.179-3.579-2.179-5.153 0-1.213 0-2.588.575-3.726C8.595 2.19 9.97 1.5 12 1.5c2.028 0 3.405.69 4.092 2.05.575 1.139.575 2.514.575 3.727 0 1.574-.794 3.452-2.18 5.154l-.88 1.08 1.013.957c.458.433 1.453.967 3.25 1.865 1.682.841 2.826 1.434 3.372 1.98.964.964 1.244 2.766 1.257 3.68a.5.5 0 0 1-.142.358z"/></svg>